<svg width="16" height="16" viewBox="0 0 16 16" fill="none" xmlns="http://www.w3.org/2000/svg">
<path d="M15.5861 5.83401L10.6434 5.11578L8.43306 0.637055C8.34453 0.457739 8.17229 0.36792 8.00006 0.36792L8.00071 13.2516L12.4208 15.5757C12.7753 15.7618 13.189 15.4611 13.1214 15.0667L12.2773 10.1437L15.8536 6.65751C16.1404 6.37807 15.982 5.89163 15.5861 5.83401Z" fill="#FFB820"/>
<path d="M11.2393 9.80665C11.2393 9.80665 12.0016 14.2503 12.0042 14.2651C12.0016 14.2648 8.06213 13.2671 8.00065 13.2516C8 13.2513 3.57923 15.5757 3.57923 15.5757C3.22478 15.7618 2.8111 15.4611 2.8787 15.0667L3.72281 10.1437L0.146464 6.65751C-0.140377 6.37807 0.0180135 5.89163 0.41399 5.83401L5.35662 5.11578L7.567 0.637055C7.65553 0.457739 7.82777 0.36792 8 0.36792L10.0021 5.99851L14.4789 6.64914L11.2393 9.80665Z" fill="#FFD06A"/>
</svg>
